<svg xmlns="http://www.w3.org/2000/svg" xml:space="preserve" width="231" height="231" data-id="lg_AYokv63ISICFG4xcQH" data-version="1" viewBox="0 0 1500 231"><g data-padding="20"><g transform="translate(10 4.132)scale(.96422)"><rect width="200.016" height="238.566" x="312.925" y="-120.128" fill="none" rx="0" ry="0" transform="matrix(.97 0 0 .97 374.99 116.32)"/><path d="M695.235 10.85h-9.02v87.86h9.02Zm30.41 36.05h-11.26l-22.53 21.4 24.78 30.41h11.26l-24.78-30.41Zm6.2 25.9q0 7.77 3.55 13.91 3.54 6.14 9.63 9.63 6.08 3.49 13.63 3.49 7.66 0 13.69-3.49 6.02-3.49 9.57-9.63t3.55-13.91q0-7.89-3.55-13.97-3.55-6.09-9.57-9.58-6.03-3.49-13.69-3.49-7.55 0-13.63 3.49-6.09 3.49-9.63 9.58-3.55 6.08-3.55 13.97m9.12 0q0-5.41 2.31-9.64 2.31-4.22 6.31-6.59 4-2.36 9.07-2.36t9.07 2.36q4 2.37 6.3 6.59 2.31 4.23 2.31 9.64 0 5.4-2.31 9.57-2.3 4.17-6.3 6.59t-9.07 2.42-9.07-2.42-6.31-6.59-2.31-9.57m74.91-25.9h-25.91v8.44h25.91Zm-8.44-18.03h-9.02v69.84h9.02Zm26.46-18.02h-9.01v87.86h9.01Zm16.91 14.63q0 2.48 1.85 4.34 1.86 1.86 4.34 1.86 2.59 0 4.39-1.86 1.81-1.86 1.81-4.34 0-2.59-1.81-4.39-1.8-1.8-4.39-1.8-2.48 0-4.34 1.8-1.85 1.8-1.85 4.39m10.7 21.41h-9.01V98.7h9.01Zm51.81 20.28v31.54h9.01V66.05q0-9.35-4.79-14.82-4.79-5.46-13.01-5.46-5.07 0-8.96 2.25-3.88 2.26-6.47 6.99V46.9h-9.02v51.81h9.02V67.17q0-3.83 1.63-6.76t4.62-4.56q2.98-1.63 6.93-1.63 5.4 0 8.22 3.26 2.82 3.27 2.82 9.69m-218.08 48.06h-9.02v87.87h9.02Zm30.41 36.05h-11.26l-22.53 21.4 24.78 30.42h11.26l-24.78-30.42Zm10.7-21.41q0 2.48 1.86 4.34t4.34 1.86q2.59 0 4.39-1.86 1.81-1.86 1.81-4.34 0-2.59-1.81-4.39-1.8-1.8-4.39-1.8-2.48 0-4.34 1.8t-1.86 4.39m10.71 21.41h-9.02v51.82h9.02Zm51.8 20.27v31.55h9.02v-32.67q0-9.35-4.79-14.82-4.79-5.46-13.01-5.46-5.07 0-8.96 2.25-3.88 2.26-6.48 6.99v-8.11h-9.01v51.82h9.01v-31.55q0-3.83 1.64-6.76 1.63-2.92 4.62-4.56 2.98-1.63 6.92-1.63 5.41 0 8.23 3.27 2.81 3.26 2.81 9.68m45.97 32.67q8.33 0 14.47-3.32t10.2-9.86l-7.33-4.62q-2.81 4.73-6.87 7.04-4.05 2.31-9.35 2.31-5.29 0-9.01-2.25t-5.63-6.53q-1.92-4.28-1.92-10.37.11-5.97 2.09-10.08 1.97-4.11 5.63-6.31 3.66-2.19 8.84-2.19 4.39 0 7.66 1.91 3.27 1.92 5.13 5.3 1.86 3.37 1.86 7.99 0 .79-.34 1.97-.34 1.19-.68 1.75l3.61-5.18h-37.18v7.66h44.27q0-.23.06-1.07.06-.85.06-1.63 0-8.23-2.93-14.2t-8.39-9.18q-5.47-3.21-13.13-3.21t-13.46 3.38-9.01 9.46q-3.21 6.09-3.21 14.2 0 7.99 3.1 14.08 3.09 6.08 8.67 9.52 5.58 3.43 12.79 3.43m55.99-52.95h-25.91v8.45h25.91Zm-8.45-18.03h-9.01v69.85h9.01Zm17.46-3.37q0 2.48 1.86 4.34t4.34 1.86q2.59 0 4.39-1.86 1.81-1.86 1.81-4.34 0-2.59-1.81-4.39-1.8-1.8-4.39-1.8-2.48 0-4.34 1.8t-1.86 4.39m10.71 21.41h-9.02v51.82h9.02Zm22.64 25.91q0-5.41 2.31-9.64 2.31-4.22 6.31-6.59 3.99-2.36 9.06-2.36 4.17 0 7.83 1.29 3.66 1.3 6.37 3.44 2.7 2.14 3.83 4.73V156.8q-2.71-3.16-7.72-4.9-5.01-1.75-10.31-1.75-7.54 0-13.63 3.49-6.08 3.49-9.63 9.58-3.55 6.08-3.55 13.97 0 7.77 3.55 13.91t9.63 9.63q6.09 3.49 13.63 3.49 5.3 0 10.31-1.74 5.01-1.75 7.72-4.9v-11.27q-1.13 2.48-3.83 4.68-2.71 2.19-6.37 3.49-3.66 1.29-7.83 1.29-5.07 0-9.06-2.42-4-2.42-6.31-6.59t-2.31-9.57m51.92 10.02-7.1 4.4q1.47 3.04 4.34 5.97 2.87 2.92 7.04 4.78t9.35 1.86q8 0 12.9-4.5 4.9-4.51 4.9-11.27 0-4.62-2.2-7.55-2.19-2.93-5.91-5.01t-8.23-3.89q-2.7-1.12-5.18-2.36t-4.05-2.82q-1.58-1.57-1.58-3.6 0-2.59 2.03-3.83t4.84-1.24q4.06 0 7.27 1.91 3.21 1.92 5.35 4.85l7.21-4.62q-1.58-2.93-4.4-5.18-2.81-2.26-6.47-3.61t-7.83-1.35-8.06 1.46q-3.88 1.47-6.3 4.51-2.43 3.04-2.43 7.66 0 4.51 2.31 7.49 2.31 2.99 5.75 4.85 3.43 1.85 6.81 3.21 3.04 1.12 5.75 2.42 2.7 1.29 4.45 3.15 1.74 1.86 1.74 4.57 0 3.04-2.19 4.78-2.2 1.75-6.03 1.75-3.15 0-5.8-1.18-2.65-1.19-4.68-3.21-2.02-2.03-3.6-4.4m-402.56-45.135H504.86c-2.625 0-4.55 2.1-4.55 4.55v8.925h96.95v-8.925c-.175-2.45-2.1-4.55-4.725-4.55m-79.1-1.75v-15.75c-3.325-.7-5.95-1.75-7.875-2.625v18.375Zm-7.875-36.575V116a22.8 22.8 0 0 0 7.875 3.325v-23.45Z"/><path d="m500.31 106.375 23.1-23.1h15.925v32.2a7.018 7.018 0 0 0 .875 14 7.018 7.018 0 0 0 .875-14v-32.2h15.225v32.2a7.018 7.018 0 0 0 .875 14 7.018 7.018 0 0 0 .875-14v-32.2h15.225v32.2a7.018 7.018 0 0 0 .875 14 7.018 7.018 0 0 0 .875-14v-32.2h2.1c3.85 0 6.825 2.975 6.825 6.825v50.225h7.875V90.1c0-8.05-6.65-14.7-14.7-14.7H520.26c-8.05 0-14.7 6.65-14.7 14.7v6.125l7.875-7.875c.175-1.75 1.05-3.15 2.275-4.025.35-.175 1.4-.525 2.45-.7.875-.175 1.75-.35 2.1-.35h.7l-21.875 21.875a7.175 7.175 0 0 0-9.275.525 6.913 6.913 0 0 0 0 9.8c6.125 6.3 15.925-2.275 10.5-9.1m76.475 16.1c0 1.4-1.225 2.625-2.625 2.625s-2.625-1.225-2.625-2.625 1.225-2.625 2.625-2.625 2.625 1.225 2.625 2.625m-16.975 0c0 1.4-1.225 2.625-2.625 2.625s-2.625-1.225-2.625-2.625 1.225-2.625 2.625-2.625 2.625 1.225 2.625 2.625m-16.975 0c0 1.4-1.225 2.625-2.625 2.625s-2.625-1.225-2.625-2.625 1.225-2.625 2.625-2.625 2.625 1.225 2.625 2.625m-48.125-9.1c-2.275 0-3.5-2.8-1.925-4.375 1.05-1.05 2.625-1.05 3.675 0 1.75 1.575.525 4.375-1.75 4.375"/><path d="M530.935 123.35c.525 0 .875-.525.7-1.05 0-.525-.525-.875-1.05-.7-20.125 2.625-28-5.775-28-5.775a.846.846 0 0 0-1.225 0 .846.846 0 0 0 0 1.225c.35.35 6.475 7 21.7 7 2.45-.175 5.075-.35 7.875-.7"/><g fill="#f5ba42" stroke="#000" stroke-width="5" transform="translate(149.4 114.6)scale(1.03)"><path d="M473.636-93.648V92.056"/>undefined
        undefined</g></g><path fill="transparent" stroke="transparent" d="M470.5 0h559v231h-559z"/></g></svg>