<svg xmlns="http://www.w3.org/2000/svg" xml:space="preserve" width="2000" height="239" viewBox="0 0 2000 239" data-version="1" data-id="lg_AYokv63ISICFG4xcQH"><g id="outer-wrapper" data-padding="20" transform="matrix(1,0,0,1,0,0)"><g id="inner-wrapper" transform="matrix(0.964349376114082,0,0,0.964349376114082,10,4.260249554367206)"><rect width="364.358" height="238.566" x="444.1758772338628" y="-399.51300000000003" fill="none" rx="0" ry="0" transform="translate(498.32 399.73)"></rect><path d="M955.3748772338629 75.51999999999998Q955.3748772338629 69.94999999999999 957.7448772338628 65.59999999999997Q960.1248772338629 61.24999999999994 964.2448772338628 58.81999999999999Q968.3648772338629 56.379999999999995 973.5848772338628 56.379999999999995Q977.8748772338629 56.379999999999995 981.6448772338629 57.70999999999998Q985.4148772338629 59.049999999999955 988.1948772338628 61.25Q990.9848772338628 63.45999999999998 992.1448772338629 66.12V54.51999999999998Q989.3548772338628 51.27999999999997 984.1948772338628 49.47999999999996T973.5848772338628 47.67999999999995Q965.8148772338628 47.67999999999995 959.5448772338627 51.27999999999997Q953.2848772338627 54.86999999999995 949.6248772338628 61.139999999999986Q945.9748772338628 67.39999999999998 945.9748772338628 75.51999999999998Q945.9748772338628 83.51999999999998 949.6248772338628 89.84999999999997Q953.2848772338627 96.16999999999996 959.5448772338627 99.75999999999999Q965.8148772338627 103.36000000000001 973.5848772338628 103.36000000000001Q979.0348772338627 103.36000000000001 984.1948772338628 101.56T992.1448772338629 96.51999999999998V84.91999999999996Q990.9848772338628 87.46999999999997 988.1948772338628 89.72999999999996Q985.4148772338629 91.98999999999995 981.6448772338629 93.32999999999998Q977.8748772338629 94.65999999999997 973.5848772338628 94.65999999999997Q968.3648772338628 94.65999999999997 964.2448772338628 92.16999999999996Q960.1248772338629 89.66999999999996 957.7448772338628 85.37999999999994Q955.3748772338629 81.08999999999992 955.3748772338629 75.51999999999992M1002.0148772338628 75.51999999999992Q1002.0148772338628 83.51999999999992 1005.6648772338629 89.84999999999991Q1009.3248772338628 96.1699999999999 1015.5848772338628 99.75999999999993Q1021.8448772338628 103.35999999999996 1029.624877233863 103.35999999999996Q1037.5048772338628 103.35999999999996 1043.7148772338628 99.75999999999993Q1049.9248772338628 96.16999999999996 1053.574877233863 89.84999999999991Q1057.2248772338628 83.51999999999992 1057.2248772338628 75.51999999999992Q1057.2248772338628 67.39999999999992 1053.574877233863 61.13999999999993Q1049.9248772338628 54.86999999999995 1043.7148772338628 51.279999999999916Q1037.5048772338628 47.67999999999989 1029.624877233863 47.67999999999989Q1021.8448772338629 47.67999999999989 1015.5848772338628 51.279999999999916Q1009.3248772338628 54.86999999999989 1005.6648772338629 61.13999999999993Q1002.0148772338628 67.39999999999992 1002.0148772338628 75.51999999999992M1011.4048772338629 75.51999999999992Q1011.4048772338629 69.94999999999993 1013.7848772338627 65.59999999999991T1020.2848772338627 58.819999999999936Q1024.4048772338629 56.37999999999994 1029.6248772338627 56.37999999999994T1038.9548772338628 58.819999999999936Q1043.0748772338627 61.24999999999994 1045.4548772338628 65.59999999999991T1047.8348772338627 75.51999999999992T1045.4548772338628 85.37999999999994T1038.9548772338628 92.16999999999996Q1034.8448772338627 94.65999999999997 1029.6248772338627 94.65999999999997T1020.2848772338627 92.16999999999996Q1016.1648772338629 89.66999999999996 1013.7848772338627 85.37999999999994T1011.4048772338629 75.51999999999992M1119.2748772338628 11.719999999999914H1109.9948772338628V102.19999999999993H1119.2748772338628ZM1065.3348772338627 75.51999999999992Q1065.3348772338627 84.09999999999991 1068.9348772338628 90.36999999999995Q1072.534877233863 96.62999999999994 1078.5648772338627 99.99999999999994Q1084.594877233863 103.35999999999996 1091.784877233863 103.35999999999996Q1098.514877233863 103.35999999999996 1103.5048772338628 99.99999999999994Q1108.494877233863 96.62999999999994 1111.334877233863 90.36999999999995Q1114.1748772338628 84.09999999999997 1114.1748772338628 75.51999999999992Q1114.1748772338628 66.81999999999994 1111.334877233863 60.6099999999999Q1108.494877233863 54.40999999999991 1103.5048772338628 51.03999999999991Q1098.514877233863 47.67999999999989 1091.784877233863 47.67999999999989Q1084.594877233863 47.67999999999989 1078.5648772338627 51.03999999999991Q1072.534877233863 54.40999999999991 1068.9348772338628 60.6099999999999Q1065.3348772338627 66.81999999999988 1065.3348772338627 75.51999999999992M1074.7348772338628 75.51999999999992Q1074.7348772338628 69.36999999999995 1077.2248772338628 65.07999999999993Q1079.7248772338628 60.78999999999991 1083.8948772338629 58.57999999999993Q1088.074877233863 56.37999999999994 1092.9448772338628 56.37999999999994Q1097.0048772338628 56.37999999999994 1100.9548772338628 58.57999999999993Q1104.8948772338629 60.78999999999991 1107.4448772338628 65.07999999999993T1109.9948772338628 75.51999999999992T1107.4448772338628 85.95999999999992T1100.9548772338628 92.45999999999992Q1097.0048772338628 94.65999999999991 1092.9448772338628 94.65999999999991Q1088.074877233863 94.65999999999991 1083.8948772338629 92.45999999999992Q1079.7248772338628 90.24999999999994 1077.2248772338628 85.95999999999992Q1074.7348772338628 81.6699999999999 1074.7348772338628 75.51999999999992M1136.094877233863 26.799999999999955Q1136.094877233863 29.349999999999966 1138.0148772338628 31.269999999999982Q1139.9248772338628 33.18000000000001 1142.4748772338628 33.18000000000001Q1145.1448772338629 33.18000000000001 1147.0048772338628 31.269999999999982Q1148.854877233863 29.349999999999966 1148.854877233863 26.799999999999955Q1148.854877233863 24.12999999999994 1147.0048772338628 22.279999999999973Q1145.1448772338629 20.41999999999996 1142.4748772338628 20.41999999999996Q1139.9248772338628 20.41999999999996 1138.014877233863 22.279999999999973Q1136.094877233863 24.129999999999995 1136.094877233863 26.799999999999955M1147.114877233863 48.839999999999975H1137.834877233863V102.19999999999999H1147.114877233863ZM1200.4748772338628 69.71999999999997V102.19999999999999H1209.7548772338628V68.56Q1209.7548772338628 58.93000000000001 1204.824877233863 53.31Q1199.8948772338629 47.68000000000001 1191.4348772338628 47.68000000000001Q1186.2148772338628 47.68000000000001 1182.2048772338628 50Q1178.2048772338628 52.31999999999999 1175.534877233863 57.19V48.839999999999975H1166.254877233863V102.19999999999999H1175.534877233863V69.71999999999997Q1175.534877233863 65.77999999999997 1177.224877233863 62.75999999999999Q1178.9048772338629 59.74000000000001 1181.974877233863 58.06Q1185.054877233863 56.379999999999995 1189.114877233863 56.379999999999995Q1194.6748772338628 56.379999999999995 1197.574877233863 59.74000000000001Q1200.474877233863 63.110000000000014 1200.474877233863 69.72000000000003M1232.954877233863 105.68H1223.564877233863Q1223.564877233863 112.51999999999998 1226.924877233863 117.80000000000001Q1230.294877233863 123.07999999999998 1236.264877233863 125.98000000000002T1250.014877233863 128.88Q1256.734877233863 128.88 1262.774877233863 125.75Q1268.804877233863 122.62 1272.634877233863 116.41000000000003Q1276.454877233863 110.20000000000005 1276.454877233863 101.04000000000002V48.84000000000003H1267.174877233863V101.04000000000002Q1267.174877233863 107.77000000000004 1264.5648772338632 112Q1261.954877233863 116.24000000000001 1258.0148772338632 118.20999999999998T1250.0148772338632 120.18Q1244.7948772338632 120.18 1240.9648772338633 118.15000000000003T1235.0448772338632 112.81000000000006Q1232.9548772338633 109.51000000000005 1232.9548772338633 105.68000000000006M1222.5148772338632 75.52000000000004Q1222.5148772338632 84.10000000000002 1226.1148772338631 90.37000000000006Q1229.7148772338633 96.63000000000005 1235.7448772338632 100.00000000000006Q1241.7748772338632 103.36000000000007 1248.9648772338633 103.36000000000007Q1255.6948772338633 103.36000000000007 1260.6848772338633 100.00000000000006Q1265.6748772338633 96.63000000000005 1268.5148772338632 90.37000000000006Q1271.3548772338634 84.10000000000008 1271.3548772338634 75.52000000000004Q1271.3548772338634 66.82000000000005 1268.5148772338632 60.610000000000014Q1265.6748772338633 54.410000000000025 1260.6848772338633 51.04000000000002Q1255.6948772338633 47.68000000000001 1248.9648772338633 47.68000000000001Q1241.7748772338632 47.68000000000001 1235.7448772338632 51.04000000000002Q1229.7148772338633 54.410000000000025 1226.1148772338631 60.610000000000014Q1222.5148772338632 66.82 1222.5148772338632 75.52000000000004M1231.914877233863 75.52000000000004Q1231.914877233863 69.37000000000006 1234.404877233863 65.08000000000004Q1236.904877233863 60.79000000000002 1241.0748772338632 58.58000000000004Q1245.254877233863 56.38000000000005 1250.1248772338631 56.38000000000005Q1253.144877233863 56.38000000000005 1256.154877233863 57.660000000000025Q1259.174877233863 58.93000000000001 1261.664877233863 61.370000000000005Q1264.164877233863 63.80000000000001 1265.674877233863 67.34000000000003Q1267.174877233863 70.88000000000005 1267.174877233863 75.52000000000004Q1267.174877233863 81.67000000000002 1264.6248772338631 85.96000000000004T1258.134877233863 92.46000000000004Q1254.184877233863 94.66000000000003 1250.1248772338631 94.66000000000003Q1245.254877233863 94.66000000000003 1241.0748772338632 92.46000000000004Q1236.904877233863 90.25000000000006 1234.404877233863 85.96000000000004Q1231.914877233863 81.67000000000002 1231.914877233863 75.52000000000004M959.8948772338631 119.21000000000004H950.6148772338631V209.69000000000005H959.8948772338631ZM991.2148772338631 156.33000000000004H979.6148772338631L956.4148772338631 178.37000000000006L981.9348772338631 209.69000000000005H993.5348772338632L968.0148772338632 178.37000000000006ZM1002.2348772338631 134.29000000000002Q1002.2348772338631 136.84000000000003 1004.1448772338631 138.75Q1006.0648772338632 140.67000000000002 1008.6148772338631 140.67000000000002Q1011.2848772338632 140.67000000000002 1013.1348772338631 138.75Q1014.9948772338632 136.83999999999997 1014.9948772338632 134.29000000000002Q1014.9948772338632 131.62 1013.1348772338631 129.76000000000005Q1011.2848772338632 127.91000000000003 1008.6148772338631 127.91000000000003Q1006.0648772338632 127.91000000000003 1004.1448772338631 129.76000000000005Q1002.2348772338631 131.62000000000006 1002.2348772338631 134.29000000000002M1013.2548772338631 156.33000000000004H1003.9748772338631V209.69000000000005H1013.2548772338631ZM1066.6148772338631 177.21000000000004V209.69000000000005H1075.894877233863V176.05000000000007Q1075.894877233863 166.42000000000007 1070.964877233863 160.79000000000008Q1066.034877233863 155.17000000000007 1057.5648772338632 155.17000000000007Q1052.3448772338631 155.17000000000007 1048.3448772338631 157.49000000000007T1041.674877233863 164.68000000000006V156.33000000000004H1032.394877233863V209.69000000000005H1041.674877233863V177.21000000000004Q1041.674877233863 173.26000000000005 1043.3548772338631 170.25000000000006Q1045.034877233863 167.23000000000008 1048.1148772338631 165.55000000000007Q1051.184877233863 163.87000000000006 1055.244877233863 163.87000000000006Q1060.8148772338632 163.87000000000006 1063.714877233863 167.23000000000008T1066.6148772338631 177.2100000000001M1113.944877233863 210.85000000000008Q1122.524877233863 210.85000000000008 1128.844877233863 207.42000000000007Q1135.174877233863 204.00000000000006 1139.3448772338631 197.2700000000001L1131.804877233863 192.5200000000001Q1128.904877233863 197.3900000000001 1124.734877233863 199.7700000000001Q1120.554877233863 202.1500000000001 1115.1048772338631 202.1500000000001T1105.8248772338632 199.8300000000001T1100.0248772338632 193.10000000000008T1098.054877233863 182.43000000000006Q1098.164877233863 176.2800000000001 1100.194877233863 172.04000000000008Q1102.224877233863 167.81000000000006 1105.994877233863 165.55000000000007T1115.1048772338631 163.29000000000008Q1119.6248772338631 163.29000000000008 1122.994877233863 165.2600000000001Q1126.3548772338631 167.23000000000013 1128.264877233863 170.7100000000001Q1130.184877233863 174.1900000000001 1130.184877233863 178.9500000000001Q1130.184877233863 179.7600000000001 1129.8348772338632 180.98000000000008Q1129.484877233863 182.19000000000005 1129.134877233863 182.7700000000001L1132.8548772338631 177.4400000000001H1094.5748772338632V185.3300000000001H1140.154877233863Q1140.154877233863 185.0900000000001 1140.214877233863 184.22000000000008T1140.274877233863 182.54000000000008Q1140.274877233863 174.07000000000005 1137.254877233863 167.93000000000006Q1134.244877233863 161.7800000000001 1128.6148772338631 158.47000000000008Q1122.994877233863 155.17000000000007 1115.1048772338631 155.17000000000007T1101.244877233863 158.6500000000001Q1095.264877233863 162.1300000000001 1091.964877233863 168.3900000000001Q1088.654877233863 174.6500000000001 1088.654877233863 183.0100000000001Q1088.654877233863 191.24000000000012 1091.8448772338631 197.5100000000001Q1095.034877233863 203.7700000000001 1100.7748772338632 207.31000000000012T1113.944877233863 210.85000000000014M1171.5948772338631 156.33000000000015H1144.914877233863V165.03000000000014H1171.5948772338631ZM1162.894877233863 137.77000000000015H1153.6148772338631V209.69000000000017H1162.894877233863ZM1180.8748772338631 134.29000000000013Q1180.8748772338631 136.84000000000015 1182.784877233863 138.7500000000001Q1184.704877233863 140.67000000000013 1187.254877233863 140.67000000000013Q1189.924877233863 140.67000000000013 1191.774877233863 138.7500000000001Q1193.634877233863 136.8400000000001 1193.634877233863 134.29000000000013Q1193.634877233863 131.62000000000012 1191.774877233863 129.76000000000016Q1189.924877233863 127.91000000000014 1187.254877233863 127.91000000000014Q1184.704877233863 127.91000000000014 1182.784877233863 129.76000000000016Q1180.8748772338631 131.62000000000018 1180.8748772338631 134.29000000000013M1191.894877233863 156.33000000000015H1182.6148772338631V209.69000000000017H1191.894877233863ZM1215.214877233863 183.01000000000016Q1215.214877233863 177.44000000000017 1217.5848772338632 173.09000000000015Q1219.964877233863 168.74000000000012 1224.0848772338632 166.30000000000013Q1228.204877233863 163.87000000000012 1233.424877233863 163.87000000000012Q1237.714877233863 163.87000000000012 1241.484877233863 165.2000000000001T1248.034877233863 168.74000000000012Q1250.824877233863 170.9400000000001 1251.984877233863 173.61000000000013V162.0100000000001Q1249.194877233863 158.7600000000001 1244.034877233863 156.9600000000001Q1238.8748772338631 155.17000000000007 1233.424877233863 155.17000000000007Q1225.654877233863 155.17000000000007 1219.384877233863 158.76000000000005Q1213.1248772338631 162.36000000000007 1209.464877233863 168.62000000000006Q1205.8148772338632 174.89000000000004 1205.8148772338632 183.01000000000005Q1205.8148772338632 191.01000000000005 1209.464877233863 197.33000000000004Q1213.1248772338631 203.65000000000003 1219.384877233863 207.25000000000006Q1225.654877233863 210.85000000000008 1233.424877233863 210.85000000000008Q1238.8748772338631 210.85000000000008 1244.034877233863 209.05000000000007T1251.984877233863 204.00000000000006V192.40000000000003Q1250.8248772338632 194.95000000000005 1248.034877233863 197.22000000000003Q1245.254877233863 199.48000000000002 1241.484877233863 200.81Q1237.714877233863 202.14999999999998 1233.424877233863 202.14999999999998Q1228.204877233863 202.14999999999998 1224.0848772338632 199.64999999999998Q1219.964877233863 197.15999999999997 1217.5848772338632 192.87Q1215.214877233863 188.57 1215.214877233863 183.01M1268.684877233863 193.32999999999998L1261.3748772338631 197.84999999999997Q1262.884877233863 200.98999999999995 1265.8448772338631 203.99999999999994Q1268.8048772338632 207.01999999999992 1273.0948772338631 208.92999999999995Q1277.384877233863 210.84999999999997 1282.7248772338633 210.84999999999997Q1290.9548772338633 210.84999999999997 1296.0048772338632 206.20999999999998T1301.0548772338632 194.60999999999996Q1301.0548772338632 189.84999999999997 1298.7848772338632 186.82999999999998Q1296.5248772338632 183.82 1292.694877233863 181.66999999999996Q1288.8748772338631 179.52999999999997 1284.234877233863 177.66999999999996Q1281.444877233863 176.50999999999993 1278.894877233863 175.22999999999996Q1276.3448772338631 173.95999999999998 1274.714877233863 172.32999999999998Q1273.0948772338631 170.70999999999998 1273.0948772338631 168.62Q1273.0948772338631 165.95 1275.184877233863 164.68Q1277.2748772338632 163.40000000000003 1280.174877233863 163.40000000000003Q1284.3448772338631 163.40000000000003 1287.654877233863 165.37000000000006Q1290.954877233863 167.35000000000008 1293.164877233863 170.36000000000007L1300.5848772338632 165.61000000000007Q1298.964877233863 162.5900000000001 1296.0648772338632 160.2700000000001T1289.394877233863 156.56000000000012T1281.3348772338632 155.17000000000013Q1277.0348772338632 155.17000000000013 1273.0348772338632 156.67000000000013Q1269.0348772338632 158.18000000000012 1266.5448772338632 161.31000000000012Q1264.0448772338632 164.4500000000001 1264.0448772338632 169.2000000000001Q1264.0448772338632 173.8400000000001 1266.4248772338633 176.92000000000013Q1268.8048772338632 179.99000000000012 1272.3448772338631 181.90000000000015Q1275.8748772338631 183.82000000000016 1279.3548772338631 185.21000000000015Q1282.4948772338632 186.37000000000018 1285.2748772338632 187.70000000000016Q1288.0548772338632 189.04000000000013 1289.8548772338631 190.95000000000016Q1291.654877233863 192.87000000000018 1291.654877233863 195.65000000000015Q1291.654877233863 198.78000000000014 1289.394877233863 200.58000000000015T1283.184877233863 202.38000000000017Q1279.934877233863 202.38000000000017 1277.214877233863 201.16000000000014Q1274.484877233863 199.9400000000001 1272.394877233863 197.85000000000014Q1270.314877233863 195.77000000000015 1268.684877233863 193.33000000000015M854.098877233863 146.84000000000015H763.918877233863C761.2188772338629 146.84000000000015 759.2388772338629 149.00000000000017 759.2388772338629 151.52000000000015V160.70000000000016H858.958877233863V151.52000000000015C858.778877233863 149.00000000000017 856.798877233863 146.84000000000015 854.0988772338629 146.84000000000015M772.7388772338629 145.04000000000013V128.84000000000015C769.318877233863 128.12000000000012 766.618877233863 127.04000000000013 764.638877233863 126.14000000000016V145.04000000000013ZM764.638877233863 107.42000000000013V120.02000000000015A23.4 23.4 0 0 0 772.7388772338629 123.44000000000017V99.32000000000016Z "></path><path d="M759.2388772338628 110.12L782.9988772338628 86.36000000000001H799.3788772338628V119.48000000000002A7.218 7.218 0 0 0 800.2788772338629 133.88A7.218 7.218 0 0 0 801.1788772338629 119.48000000000002V86.36000000000001H816.8388772338628V119.48000000000002A7.218 7.218 0 0 0 817.7388772338628 133.88A7.218 7.218 0 0 0 818.6388772338628 119.48000000000002V86.36000000000001H834.2988772338629V119.48000000000002A7.218 7.218 0 0 0 835.1988772338628 133.88A7.218 7.218 0 0 0 836.0988772338628 119.48000000000002V86.36000000000001H838.2588772338629C842.2188772338628 86.36000000000001 845.2788772338629 89.42000000000002 845.2788772338629 93.38V145.03999999999996H853.3788772338628V93.38C853.3788772338628 85.10000000000002 846.5388772338629 78.25999999999999 838.2588772338629 78.25999999999999H779.7588772338629C771.4788772338628 78.25999999999999 764.6388772338628 85.09999999999997 764.6388772338628 93.38V99.68L772.7388772338628 91.57999999999998C772.9188772338629 89.77999999999997 773.8188772338628 88.33999999999997 775.0788772338628 87.44C775.4388772338629 87.25999999999999 776.5188772338629 86.89999999999998 777.5988772338628 86.71999999999997C778.4988772338629 86.53999999999996 779.3988772338629 86.35999999999996 779.7588772338629 86.35999999999996H780.4788772338628L757.9788772338628 108.85999999999996A7.38 7.38 0 0 0 748.4388772338629 109.39999999999998A7.11 7.11 0 0 0 748.4388772338629 119.47999999999996C754.7388772338629 125.95999999999998 764.8188772338628 117.13999999999999 759.2388772338629 110.11999999999995M837.8988772338629 126.67999999999995C837.8988772338629 128.11999999999995 836.6388772338629 129.37999999999994 835.1988772338628 129.37999999999994S832.4988772338629 128.11999999999995 832.4988772338629 126.67999999999995S833.7588772338629 123.97999999999996 835.1988772338628 123.97999999999996S837.8988772338629 125.23999999999995 837.8988772338629 126.67999999999995M820.4388772338629 126.67999999999995C820.4388772338629 128.11999999999995 819.1788772338629 129.37999999999994 817.7388772338629 129.37999999999994S815.0388772338629 128.11999999999995 815.0388772338629 126.67999999999995S816.2988772338629 123.97999999999996 817.7388772338629 123.97999999999996S820.4388772338629 125.23999999999995 820.4388772338629 126.67999999999995M802.9788772338628 126.67999999999995C802.9788772338628 128.11999999999995 801.7188772338628 129.37999999999994 800.2788772338629 129.37999999999994S797.5788772338628 128.11999999999995 797.5788772338628 126.67999999999995S798.8388772338628 123.97999999999996 800.2788772338629 123.97999999999996S802.9788772338628 125.23999999999995 802.9788772338628 126.67999999999995M753.4788772338628 117.31999999999994C751.1388772338628 117.31999999999994 749.8788772338628 114.43999999999994 751.4988772338628 112.81999999999994C752.5788772338628 111.73999999999995 754.1988772338628 111.73999999999995 755.2788772338629 112.81999999999994C757.0788772338628 114.43999999999994 755.8188772338628 117.31999999999994 753.4788772338628 117.31999999999994 "></path><path d="M790.7388772338628 127.57999999999998C791.2788772338629 127.57999999999998 791.6388772338628 127.03999999999996 791.4588772338628 126.5C791.4588772338628 125.95999999999998 790.9188772338629 125.60000000000002 790.3788772338628 125.77999999999997C769.6788772338629 128.47999999999996 761.5788772338628 119.83999999999997 761.5788772338628 119.83999999999997A0.87 0.87 0 0 0 760.3188772338628 119.83999999999997A0.87 0.87 0 0 0 760.3188772338628 121.09999999999997C760.6788772338629 121.45999999999998 766.9788772338628 128.29999999999995 782.6388772338628 128.29999999999995C785.1588772338628 128.11999999999995 787.8588772338628 127.93999999999994 790.7388772338628 127.57999999999993 "></path><path fill="#f5ba42" stroke="#000" stroke-width="5.3" d="M900.2048772338628 19.30699999999996V216.15299999999996 "></path></g><rect width="561" height="239" x="719.5" y="0" id="space-saver" fill="transparent" stroke="transparent"></rect></g></svg>