<svg xmlns="http://www.w3.org/2000/svg" xml:space="preserve" width="2000" height="1500" viewBox="0 0 2000 1500" data-version="1" data-id="lg_AYokv63ISICFG4xcQH" x="0" y="0"><rect width="2000" height="1500" id="background" stroke="transparent" fill="#ffffff"></rect><g id="outer-wrapper" data-padding="20" transform="matrix(2.6737967914438503,0,0,2.6737967914438503,-1673.7967914438505,-1255.3475935828876)"><g id="inner-wrapper" transform="matrix(0.964349376114082,0,0,0.964349376114082,10,4.260249554367206)"><rect width="364.358" height="238.566" x="444.1758772338628" y="254.29568761552684" fill="none" rx="0" ry="0" transform="translate(498.32 399.73)"></rect><path d="M955.3748772338629 729.3286876155269Q955.3748772338629 723.7586876155269 957.7448772338628 719.4086876155268Q960.1248772338629 715.0586876155269 964.2448772338628 712.6286876155268Q968.3648772338629 710.1886876155269 973.5848772338628 710.1886876155269Q977.8748772338629 710.1886876155269 981.6448772338629 711.5186876155269Q985.4148772338629 712.8586876155268 988.1948772338628 715.0586876155269Q990.9848772338628 717.2686876155269 992.1448772338629 719.9286876155269V708.3286876155269Q989.3548772338628 705.0886876155269 984.1948772338628 703.2886876155269T973.5848772338628 701.4886876155268Q965.8148772338628 701.4886876155268 959.5448772338627 705.0886876155269Q953.2848772338627 708.6786876155268 949.6248772338628 714.9486876155269Q945.9748772338628 721.2086876155269 945.9748772338628 729.3286876155269Q945.9748772338628 737.3286876155269 949.6248772338628 743.6586876155268Q953.2848772338627 749.9786876155268 959.5448772338627 753.5686876155269Q965.8148772338627 757.1686876155269 973.5848772338628 757.1686876155269Q979.0348772338627 757.1686876155269 984.1948772338628 755.3686876155268T992.1448772338629 750.3286876155269V738.7286876155268Q990.9848772338628 741.2786876155269 988.1948772338628 743.5386876155269Q985.4148772338629 745.7986876155269 981.6448772338629 747.1386876155268Q977.8748772338629 748.4686876155268 973.5848772338628 748.4686876155268Q968.3648772338628 748.4686876155268 964.2448772338628 745.9786876155268Q960.1248772338629 743.4786876155268 957.7448772338628 739.1886876155268Q955.3748772338629 734.8986876155268 955.3748772338629 729.3286876155269M1002.0148772338628 729.3286876155269Q1002.0148772338628 737.3286876155269 1005.6648772338629 743.6586876155268Q1009.3248772338628 749.9786876155267 1015.5848772338628 753.5686876155269Q1021.8448772338628 757.1686876155268 1029.624877233863 757.1686876155268Q1037.5048772338628 757.1686876155268 1043.7148772338628 753.5686876155269Q1049.9248772338628 749.9786876155268 1053.574877233863 743.6586876155268Q1057.2248772338628 737.3286876155269 1057.2248772338628 729.3286876155269Q1057.2248772338628 721.2086876155267 1053.574877233863 714.9486876155268Q1049.9248772338628 708.6786876155268 1043.7148772338628 705.0886876155269Q1037.5048772338628 701.4886876155267 1029.624877233863 701.4886876155267Q1021.8448772338629 701.4886876155267 1015.5848772338628 705.0886876155269Q1009.3248772338628 708.6786876155268 1005.6648772338629 714.9486876155268Q1002.0148772338628 721.2086876155267 1002.0148772338628 729.3286876155269M1011.4048772338629 729.3286876155269Q1011.4048772338629 723.7586876155268 1013.7848772338627 719.4086876155268T1020.2848772338627 712.6286876155268Q1024.4048772338629 710.1886876155268 1029.6248772338627 710.1886876155268T1038.9548772338628 712.6286876155268Q1043.0748772338627 715.0586876155269 1045.4548772338628 719.4086876155268T1047.8348772338627 729.3286876155269T1045.4548772338628 739.1886876155268T1038.9548772338628 745.9786876155268Q1034.8448772338627 748.4686876155268 1029.6248772338627 748.4686876155268T1020.2848772338627 745.9786876155268Q1016.1648772338629 743.4786876155268 1013.7848772338627 739.1886876155268T1011.4048772338629 729.3286876155269M1119.2748772338628 665.5286876155268H1109.9948772338628V756.0086876155268H1119.2748772338628ZM1065.3348772338627 729.3286876155269Q1065.3348772338627 737.9086876155268 1068.9348772338628 744.1786876155268Q1072.534877233863 750.4386876155268 1078.5648772338627 753.8086876155269Q1084.594877233863 757.1686876155268 1091.784877233863 757.1686876155268Q1098.514877233863 757.1686876155268 1103.5048772338628 753.8086876155269Q1108.494877233863 750.4386876155268 1111.334877233863 744.1786876155268Q1114.1748772338628 737.9086876155268 1114.1748772338628 729.3286876155269Q1114.1748772338628 720.6286876155268 1111.334877233863 714.4186876155268Q1108.494877233863 708.2186876155267 1103.5048772338628 704.8486876155268Q1098.514877233863 701.4886876155267 1091.784877233863 701.4886876155267Q1084.594877233863 701.4886876155267 1078.5648772338627 704.8486876155268Q1072.534877233863 708.2186876155267 1068.9348772338628 714.4186876155268Q1065.3348772338627 720.6286876155268 1065.3348772338627 729.3286876155269M1074.7348772338628 729.3286876155269Q1074.7348772338628 723.1786876155268 1077.2248772338628 718.8886876155268Q1079.7248772338628 714.5986876155268 1083.8948772338629 712.3886876155268Q1088.074877233863 710.1886876155268 1092.9448772338628 710.1886876155268Q1097.0048772338628 710.1886876155268 1100.9548772338628 712.3886876155268Q1104.8948772338629 714.5986876155268 1107.4448772338628 718.8886876155268T1109.9948772338628 729.3286876155269T1107.4448772338628 739.7686876155268T1100.9548772338628 746.2686876155268Q1097.0048772338628 748.4686876155267 1092.9448772338628 748.4686876155267Q1088.074877233863 748.4686876155267 1083.8948772338629 746.2686876155268Q1079.7248772338628 744.0586876155269 1077.2248772338628 739.7686876155268Q1074.7348772338628 735.4786876155267 1074.7348772338628 729.3286876155269M1136.094877233863 680.6086876155268Q1136.094877233863 683.1586876155268 1138.0148772338628 685.0786876155269Q1139.9248772338628 686.9886876155269 1142.4748772338628 686.9886876155269Q1145.1448772338629 686.9886876155269 1147.0048772338628 685.0786876155269Q1148.854877233863 683.1586876155268 1148.854877233863 680.6086876155268Q1148.854877233863 677.9386876155268 1147.0048772338628 676.0886876155269Q1145.1448772338629 674.2286876155268 1142.4748772338628 674.2286876155268Q1139.9248772338628 674.2286876155268 1138.014877233863 676.0886876155269Q1136.094877233863 677.9386876155269 1136.094877233863 680.6086876155268M1147.114877233863 702.6486876155268H1137.834877233863V756.0086876155269H1147.114877233863ZM1200.4748772338628 723.5286876155269V756.0086876155269H1209.7548772338628V722.3686876155268Q1209.7548772338628 712.7386876155269 1204.824877233863 707.1186876155268Q1199.8948772338629 701.4886876155269 1191.4348772338628 701.4886876155269Q1186.2148772338628 701.4886876155269 1182.2048772338628 703.8086876155269Q1178.2048772338628 706.1286876155268 1175.534877233863 710.9986876155269V702.6486876155268H1166.254877233863V756.0086876155269H1175.534877233863V723.5286876155269Q1175.534877233863 719.5886876155269 1177.224877233863 716.5686876155269Q1178.9048772338629 713.5486876155269 1181.974877233863 711.8686876155268Q1185.054877233863 710.1886876155269 1189.114877233863 710.1886876155269Q1194.6748772338628 710.1886876155269 1197.574877233863 713.5486876155269Q1200.474877233863 716.9186876155269 1200.474877233863 723.5286876155269M1232.954877233863 759.4886876155269H1223.564877233863Q1223.564877233863 766.3286876155269 1226.924877233863 771.6086876155268Q1230.294877233863 776.8886876155268 1236.264877233863 779.7886876155269T1250.014877233863 782.6886876155269Q1256.734877233863 782.6886876155269 1262.774877233863 779.5586876155269Q1268.804877233863 776.4286876155269 1272.634877233863 770.218687615527Q1276.454877233863 764.0086876155269 1276.454877233863 754.8486876155268V702.6486876155269H1267.174877233863V754.8486876155268Q1267.174877233863 761.5786876155269 1264.5648772338632 765.8086876155269Q1261.954877233863 770.0486876155269 1258.0148772338632 772.0186876155269T1250.0148772338632 773.9886876155269Q1244.7948772338632 773.9886876155269 1240.9648772338633 771.958687615527T1235.0448772338632 766.6186876155269Q1232.9548772338633 763.3186876155269 1232.9548772338633 759.4886876155269M1222.5148772338632 729.3286876155269Q1222.5148772338632 737.9086876155269 1226.1148772338631 744.178687615527Q1229.7148772338633 750.438687615527 1235.7448772338632 753.8086876155269Q1241.7748772338632 757.168687615527 1248.9648772338633 757.168687615527Q1255.6948772338633 757.168687615527 1260.6848772338633 753.8086876155269Q1265.6748772338633 750.438687615527 1268.5148772338632 744.178687615527Q1271.3548772338634 737.908687615527 1271.3548772338634 729.3286876155269Q1271.3548772338634 720.6286876155269 1268.5148772338632 714.4186876155269Q1265.6748772338633 708.218687615527 1260.6848772338633 704.8486876155268Q1255.6948772338633 701.4886876155269 1248.9648772338633 701.4886876155269Q1241.7748772338632 701.4886876155269 1235.7448772338632 704.8486876155268Q1229.7148772338633 708.218687615527 1226.1148772338631 714.4186876155269Q1222.5148772338632 720.6286876155268 1222.5148772338632 729.3286876155269M1231.914877233863 729.3286876155269Q1231.914877233863 723.178687615527 1234.404877233863 718.8886876155269Q1236.904877233863 714.5986876155268 1241.0748772338632 712.3886876155269Q1245.254877233863 710.188687615527 1250.1248772338631 710.188687615527Q1253.144877233863 710.188687615527 1256.154877233863 711.468687615527Q1259.174877233863 712.7386876155269 1261.664877233863 715.1786876155269Q1264.164877233863 717.6086876155268 1265.674877233863 721.1486876155269Q1267.174877233863 724.688687615527 1267.174877233863 729.3286876155269Q1267.174877233863 735.478687615527 1264.6248772338631 739.7686876155269T1258.134877233863 746.2686876155269Q1254.184877233863 748.468687615527 1250.1248772338631 748.468687615527Q1245.254877233863 748.468687615527 1241.0748772338632 746.2686876155269Q1236.904877233863 744.0586876155269 1234.404877233863 739.7686876155269Q1231.914877233863 735.478687615527 1231.914877233863 729.3286876155269M959.8948772338631 773.0186876155269H950.6148772338631V863.4986876155269H959.8948772338631ZM991.2148772338631 810.1386876155269H979.6148772338631L956.4148772338631 832.178687615527L981.9348772338631 863.4986876155269H993.5348772338632L968.0148772338632 832.178687615527ZM1002.2348772338631 788.0986876155268Q1002.2348772338631 790.6486876155269 1004.1448772338631 792.5586876155269Q1006.0648772338632 794.478687615527 1008.6148772338631 794.478687615527Q1011.2848772338632 794.478687615527 1013.1348772338631 792.5586876155269Q1014.9948772338632 790.6486876155268 1014.9948772338632 788.0986876155268Q1014.9948772338632 785.4286876155269 1013.1348772338631 783.5686876155269Q1011.2848772338632 781.718687615527 1008.6148772338631 781.718687615527Q1006.0648772338632 781.718687615527 1004.1448772338631 783.5686876155269Q1002.2348772338631 785.428687615527 1002.2348772338631 788.0986876155268M1013.2548772338631 810.1386876155269H1003.9748772338631V863.4986876155269H1013.2548772338631ZM1066.6148772338631 831.0186876155269V863.4986876155269H1075.894877233863V829.858687615527Q1075.894877233863 820.228687615527 1070.964877233863 814.598687615527Q1066.034877233863 808.978687615527 1057.5648772338632 808.978687615527Q1052.3448772338631 808.978687615527 1048.3448772338631 811.2986876155269T1041.674877233863 818.4886876155269V810.1386876155269H1032.394877233863V863.4986876155269H1041.674877233863V831.0186876155269Q1041.674877233863 827.0686876155269 1043.3548772338631 824.0586876155269Q1045.034877233863 821.0386876155269 1048.1148772338631 819.358687615527Q1051.184877233863 817.678687615527 1055.244877233863 817.678687615527Q1060.8148772338632 817.678687615527 1063.714877233863 821.0386876155269T1066.6148772338631 831.0186876155269M1113.944877233863 864.658687615527Q1122.524877233863 864.658687615527 1128.844877233863 861.228687615527Q1135.174877233863 857.8086876155269 1139.3448772338631 851.078687615527L1131.804877233863 846.328687615527Q1128.904877233863 851.198687615527 1124.734877233863 853.578687615527Q1120.554877233863 855.958687615527 1115.1048772338631 855.958687615527T1105.8248772338632 853.638687615527T1100.0248772338632 846.908687615527T1098.054877233863 836.2386876155269Q1098.164877233863 830.088687615527 1100.194877233863 825.848687615527Q1102.224877233863 821.6186876155269 1105.994877233863 819.358687615527T1115.1048772338631 817.098687615527Q1119.6248772338631 817.098687615527 1122.994877233863 819.068687615527Q1126.3548772338631 821.038687615527 1128.264877233863 824.5186876155269Q1130.184877233863 827.9986876155269 1130.184877233863 832.7586876155269Q1130.184877233863 833.568687615527 1129.8348772338632 834.7886876155269Q1129.484877233863 835.9986876155269 1129.134877233863 836.578687615527L1132.8548772338631 831.2486876155269H1094.5748772338632V839.138687615527H1140.154877233863Q1140.154877233863 838.898687615527 1140.214877233863 838.0286876155269T1140.274877233863 836.348687615527Q1140.274877233863 827.8786876155269 1137.254877233863 821.7386876155269Q1134.244877233863 815.588687615527 1128.6148772338631 812.2786876155269Q1122.994877233863 808.978687615527 1115.1048772338631 808.978687615527T1101.244877233863 812.458687615527Q1095.264877233863 815.938687615527 1091.964877233863 822.198687615527Q1088.654877233863 828.458687615527 1088.654877233863 836.818687615527Q1088.654877233863 845.048687615527 1091.8448772338631 851.318687615527Q1095.034877233863 857.578687615527 1100.7748772338632 861.118687615527T1113.944877233863 864.658687615527M1171.5948772338631 810.138687615527H1144.914877233863V818.8386876155271H1171.5948772338631ZM1162.894877233863 791.5786876155271H1153.6148772338631V863.498687615527H1162.894877233863ZM1180.8748772338631 788.0986876155271Q1180.8748772338631 790.648687615527 1182.784877233863 792.558687615527Q1184.704877233863 794.478687615527 1187.254877233863 794.478687615527Q1189.924877233863 794.478687615527 1191.774877233863 792.558687615527Q1193.634877233863 790.648687615527 1193.634877233863 788.0986876155271Q1193.634877233863 785.428687615527 1191.774877233863 783.5686876155271Q1189.924877233863 781.718687615527 1187.254877233863 781.718687615527Q1184.704877233863 781.718687615527 1182.784877233863 783.5686876155271Q1180.8748772338631 785.428687615527 1180.8748772338631 788.0986876155271M1191.894877233863 810.138687615527H1182.6148772338631V863.498687615527H1191.894877233863ZM1215.214877233863 836.8186876155271Q1215.214877233863 831.248687615527 1217.5848772338632 826.898687615527Q1219.964877233863 822.548687615527 1224.0848772338632 820.1086876155271Q1228.204877233863 817.678687615527 1233.424877233863 817.678687615527Q1237.714877233863 817.678687615527 1241.484877233863 819.0086876155269T1248.034877233863 822.548687615527Q1250.824877233863 824.7486876155269 1251.984877233863 827.418687615527V815.818687615527Q1249.194877233863 812.568687615527 1244.034877233863 810.7686876155269Q1238.8748772338631 808.978687615527 1233.424877233863 808.978687615527Q1225.654877233863 808.978687615527 1219.384877233863 812.5686876155269Q1213.1248772338631 816.168687615527 1209.464877233863 822.428687615527Q1205.8148772338632 828.698687615527 1205.8148772338632 836.8186876155269Q1205.8148772338632 844.8186876155269 1209.464877233863 851.1386876155269Q1213.1248772338631 857.458687615527 1219.384877233863 861.0586876155269Q1225.654877233863 864.658687615527 1233.424877233863 864.658687615527Q1238.8748772338631 864.658687615527 1244.034877233863 862.858687615527T1251.984877233863 857.8086876155269V846.208687615527Q1250.8248772338632 848.7586876155269 1248.034877233863 851.0286876155269Q1245.254877233863 853.2886876155269 1241.484877233863 854.6186876155268Q1237.714877233863 855.9586876155269 1233.424877233863 855.9586876155269Q1228.204877233863 855.9586876155269 1224.0848772338632 853.4586876155269Q1219.964877233863 850.9686876155268 1217.5848772338632 846.6786876155269Q1215.214877233863 842.3786876155268 1215.214877233863 836.8186876155269M1268.684877233863 847.1386876155268L1261.3748772338631 851.6586876155268Q1262.884877233863 854.7986876155269 1265.8448772338631 857.8086876155269Q1268.8048772338632 860.8286876155269 1273.0948772338631 862.7386876155268Q1277.384877233863 864.6586876155268 1282.7248772338633 864.6586876155268Q1290.9548772338633 864.6586876155268 1296.0048772338632 860.0186876155269T1301.0548772338632 848.4186876155268Q1301.0548772338632 843.6586876155268 1298.7848772338632 840.6386876155268Q1296.5248772338632 837.6286876155268 1292.694877233863 835.4786876155268Q1288.8748772338631 833.3386876155269 1284.234877233863 831.4786876155268Q1281.444877233863 830.3186876155269 1278.894877233863 829.0386876155269Q1276.3448772338631 827.7686876155269 1274.714877233863 826.1386876155268Q1273.0948772338631 824.5186876155269 1273.0948772338631 822.4286876155269Q1273.0948772338631 819.7586876155269 1275.184877233863 818.4886876155269Q1277.2748772338632 817.208687615527 1280.174877233863 817.208687615527Q1284.3448772338631 817.208687615527 1287.654877233863 819.178687615527Q1290.954877233863 821.158687615527 1293.164877233863 824.168687615527L1300.5848772338632 819.418687615527Q1298.964877233863 816.398687615527 1296.0648772338632 814.078687615527T1289.394877233863 810.368687615527T1281.3348772338632 808.978687615527Q1277.0348772338632 808.978687615527 1273.0348772338632 810.478687615527Q1269.0348772338632 811.9886876155269 1266.5448772338632 815.118687615527Q1264.0448772338632 818.2586876155269 1264.0448772338632 823.0086876155269Q1264.0448772338632 827.648687615527 1266.4248772338633 830.728687615527Q1268.8048772338632 833.798687615527 1272.3448772338631 835.708687615527Q1275.8748772338631 837.628687615527 1279.3548772338631 839.018687615527Q1282.4948772338632 840.178687615527 1285.2748772338632 841.508687615527Q1288.0548772338632 842.8486876155271 1289.8548772338631 844.758687615527Q1291.654877233863 846.678687615527 1291.654877233863 849.458687615527Q1291.654877233863 852.5886876155271 1289.394877233863 854.388687615527T1283.184877233863 856.188687615527Q1279.934877233863 856.188687615527 1277.214877233863 854.968687615527Q1274.484877233863 853.7486876155269 1272.394877233863 851.658687615527Q1270.314877233863 849.5786876155271 1268.684877233863 847.138687615527M854.098877233863 800.648687615527H763.918877233863C761.2188772338629 800.648687615527 759.2388772338629 802.8086876155271 759.2388772338629 805.3286876155271V814.508687615527H858.958877233863V805.3286876155271C858.778877233863 802.8086876155271 856.798877233863 800.648687615527 854.0988772338629 800.648687615527M772.7388772338629 798.8486876155271V782.648687615527C769.318877233863 781.928687615527 766.618877233863 780.8486876155271 764.638877233863 779.948687615527V798.8486876155271ZM764.638877233863 761.228687615527V773.8286876155271A23.4 23.4 0 0 0 772.7388772338629 777.248687615527V753.128687615527Z "></path><path d="M759.2388772338628 763.9286876155269L782.9988772338628 740.1686876155269H799.3788772338628V773.2886876155269A7.218 7.218 0 0 0 800.2788772338629 787.6886876155269A7.218 7.218 0 0 0 801.1788772338629 773.2886876155269V740.1686876155269H816.8388772338628V773.2886876155269A7.218 7.218 0 0 0 817.7388772338628 787.6886876155269A7.218 7.218 0 0 0 818.6388772338628 773.2886876155269V740.1686876155269H834.2988772338629V773.2886876155269A7.218 7.218 0 0 0 835.1988772338628 787.6886876155269A7.218 7.218 0 0 0 836.0988772338628 773.2886876155269V740.1686876155269H838.2588772338629C842.2188772338628 740.1686876155269 845.2788772338629 743.228687615527 845.2788772338629 747.1886876155269V798.8486876155268H853.3788772338628V747.1886876155269C853.3788772338628 738.9086876155269 846.5388772338629 732.0686876155269 838.2588772338629 732.0686876155269H779.7588772338629C771.4788772338628 732.0686876155269 764.6388772338628 738.9086876155268 764.6388772338628 747.1886876155269V753.4886876155269L772.7388772338628 745.3886876155268C772.9188772338629 743.5886876155269 773.8188772338628 742.1486876155268 775.0788772338628 741.2486876155269C775.4388772338629 741.0686876155269 776.5188772338629 740.7086876155269 777.5988772338628 740.5286876155269C778.4988772338629 740.3486876155268 779.3988772338629 740.1686876155268 779.7588772338629 740.1686876155268H780.4788772338628L757.9788772338628 762.6686876155268A7.38 7.38 0 0 0 748.4388772338629 763.2086876155269A7.11 7.11 0 0 0 748.4388772338629 773.2886876155269C754.7388772338629 779.7686876155269 764.8188772338628 770.9486876155269 759.2388772338629 763.9286876155268M837.8988772338629 780.4886876155268C837.8988772338629 781.9286876155268 836.6388772338629 783.1886876155268 835.1988772338628 783.1886876155268S832.4988772338629 781.9286876155268 832.4988772338629 780.4886876155268S833.7588772338629 777.7886876155269 835.1988772338628 777.7886876155269S837.8988772338629 779.0486876155269 837.8988772338629 780.4886876155268M820.4388772338629 780.4886876155268C820.4388772338629 781.9286876155268 819.1788772338629 783.1886876155268 817.7388772338629 783.1886876155268S815.0388772338629 781.9286876155268 815.0388772338629 780.4886876155268S816.2988772338629 777.7886876155269 817.7388772338629 777.7886876155269S820.4388772338629 779.0486876155269 820.4388772338629 780.4886876155268M802.9788772338628 780.4886876155268C802.9788772338628 781.9286876155268 801.7188772338628 783.1886876155268 800.2788772338629 783.1886876155268S797.5788772338628 781.9286876155268 797.5788772338628 780.4886876155268S798.8388772338628 777.7886876155269 800.2788772338629 777.7886876155269S802.9788772338628 779.0486876155269 802.9788772338628 780.4886876155268M753.4788772338628 771.1286876155268C751.1388772338628 771.1286876155268 749.8788772338628 768.2486876155268 751.4988772338628 766.6286876155268C752.5788772338628 765.5486876155269 754.1988772338628 765.5486876155269 755.2788772338629 766.6286876155268C757.0788772338628 768.2486876155268 755.8188772338628 771.1286876155268 753.4788772338628 771.1286876155268 "></path><path d="M790.7388772338628 781.3886876155268C791.2788772338629 781.3886876155268 791.6388772338628 780.8486876155268 791.4588772338628 780.3086876155269C791.4588772338628 779.7686876155269 790.9188772338629 779.4086876155269 790.3788772338628 779.5886876155269C769.6788772338629 782.2886876155269 761.5788772338628 773.6486876155268 761.5788772338628 773.6486876155268A0.87 0.87 0 0 0 760.3188772338628 773.6486876155268A0.87 0.87 0 0 0 760.3188772338628 774.9086876155268C760.6788772338629 775.2686876155269 766.9788772338628 782.1086876155268 782.6388772338628 782.1086876155268C785.1588772338628 781.9286876155268 787.8588772338628 781.7486876155268 790.7388772338628 781.3886876155268 "></path><path fill="#f5ba42" stroke="#000" stroke-width="5.3" d="M900.2048772338628 673.1156876155269V869.9616876155269 "></path></g><rect width="561" height="239" x="719.5" y="630.5" id="space-saver" fill="transparent" stroke="transparent"></rect></g></svg>